# xmcd CD database file
#
# Track frame offsets:
#	150
#	31260
#	62675
#	95055
#	129201
#	152003
#	174955
#	221627
#	252087
#	277851
#	311108
#
# Disc length: 4505 seconds
#
# Revision: 0
# Processed by: cddbd v1.5.2PL0 Copyright (c) Steve Scherf et al.
# Submitted via: CDex 1.51
#
DISCID=8e11970b
DTITLE=Piccadilly Onions - On Stage 2001
DYEAR=1900
DGENRE=Jazz
TTITLE0=Bill Baily, Won´t Yoo Please Come Home
TTITLE1=St. JamesInfirmaty
TTITLE2=Margie
TTITLE3=Basin Street Blues
TTITLE4=When You´re Smiling
TTITLE5=Darktown Strutters Ball
TTITLE6=Bela´s Krah Krah Blues
TTITLE7=Jada
TTITLE8=Way Down Yonder In New Orleans
TTITLE9=Summertime
TTITLE10=At The Jazz Band Ball
EXTD=
EXTT0=
EXTT1=
EXTT2=
EXTT3=
EXTT4=
EXTT5=
EXTT6=
EXTT7=
EXTT8=
EXTT9=
EXTT10=
PLAYORDER=
